<svg version="1.2" xmlns="http://www.w3.org/2000/svg" viewBox="0 0 834 634" width="834" height="634"><style>.a{fill:#eafffb}.b{fill:#3f3d56}.c{fill:#2f2e41}.d{fill:#ffb6b6}.e{fill:#a0616a}.f{fill:#6c63ff}.g{fill:#ffb8b8}.h{fill:#1abc9c}.i{fill:#fff}</style><path className="a" d="m770.9 575.5c-27.3 20.8-60.5 41.8-93.2 51.7q-3.6 1.1-7.2 2.1-3.5 0.9-7.2 1.6-3.6 0.7-7.3 1.2-3.6 0.5-7.3 0.8-3.5 0.2-6.9 0.2-3.5 0-6.9-0.2-3.5-0.3-6.9-0.8-3.4-0.6-6.8-1.4c-23.6-5.8-45.5-16.1-66.7-28.1-6.9-4-13.7-8.1-20.5-12.3-11.1-6.8-22.1-13.9-33.1-20.9q-2.5-1.5-5-3.1-4-2.5-8-4.9-0.7-0.4-1.4-0.9-7.6-4.6-15.4-8.9-1-0.6-1.9-1.1-3.8-2.1-7.7-4.1-3.8-2-7.7-3.9-3.9-1.9-7.8-3.7-4-1.8-7.9-3.5c-7-3-14.1-5.6-21.2-7.9q-4.1-1.3-8.3-2.4-3.1-0.8-6.2-1.6-3.1-0.7-6.2-1.3-3.2-0.6-6.4-1.1-3.1-0.5-6.3-0.9-4.4-0.5-8.8-0.8-4.4-0.2-8.8-0.2-4.4 0-8.8 0.4-4.4 0.3-8.8 0.9-1.2 0.1-2.4 0.3c-31.6 5.1-60.4 22.1-92.2 26.2q-1.5 0.2-3 0.3-0.7 0.1-1.4 0.1-3.4 0.3-6.9 0.4-3.4 0.1-6.9 0-3.5 0-6.9-0.3-3.5-0.3-6.9-0.8c-25.7-3.3-50.6-13.8-73.1-27-52.5-31-95.1-78.5-121-133.5q-1.7-3.5-3.3-7.1-1.5-3.6-3-7.2-1.5-3.6-2.9-7.3-1.4-3.6-2.7-7.3-3.5-10.2-6.3-20.7-2.8-10.5-4.8-21.1-2-10.7-3.1-21.5-1.1-10.7-1.4-21.6c-2.5-100.3 54.6-201 144.1-246.4 89.6-45.4 207.4-30.4 279.6 39.3 43.8 42.3 69.1 99.7 102.1 150.9 33 51.2 79.8 100.1 140.3 107.5 30.8 3.8 63-3.5 92.5 6.1 16.3 5.3 30.3 15.4 41.5 28.3q2.8 3.3 5.4 6.8 2.6 3.4 5 7.1 2.3 3.6 4.5 7.4 2.1 3.8 3.9 7.7 1.3 2.9 2.6 5.7 1.2 2.9 2.3 5.9 1.1 2.9 2 5.9 1 3 1.8 6.1 0.6 2.2 1.2 4.4c14.7 60.1-8.8 123-58 160.5z"/><path className="b" d="m159.7 492.3c0-14.1 11.4-25.5 25.5-25.5h94c14 0 25.5 11.4 25.5 25.5 0 14.1-11.5 25.5-25.5 25.5h-94c-14.1 0-25.5-11.4-25.5-25.5z"/><path className="b" d="m250.7 504.8v42.4q-3.7 0.4-7.3 0.5-3.6 0.1-7.3 0.1-3.6-0.1-7.2-0.4-3.6-0.3-7.2-0.8v-41.8z"/><path className="c" d="m348.3 520.4q-1.2 0.1-2.4 0.3c-31.6 5.1-60.4 22.1-92.2 26.2q-1.5 0.2-3 0.3-0.7 0.1-1.4 0.1c-7.7-7.6-15.5-15.6-22.7-24-4-4.5-7.8-9.2-11.4-13.8-9.3-12.1-17.2-24.5-22.4-36.7 0.5-5.9-3.1-19.4-4.9-29.8-0.7-4.3-1.1-8.1-0.8-10.6 2.2-14 13.6-12.4 17.1-26.1q1.2-1 2.4-1.9 1.3-1 2.5-1.9 1.3-0.9 2.6-1.7 1.3-0.8 2.6-1.6 0.9-0.5 1.8-1.1l38.2-26.4 14.6 14.4 22.3 21.8 24 23.6-20.4 20.6c0 0 17.1 19.7 37.1 46 5.3 7 10.9 14.5 16.4 22.3z"/><path className="b" d="m677.7 504.8v122.4q-3.6 1.1-7.2 2.1-3.5 0.9-7.2 1.6-3.6 0.7-7.3 1.2-3.6 0.5-7.3 0.8v-128.1z"/><path className="b" d="m595.7 520.3c0-14.1 11.4-25.5 25.5-25.5h94c14 0 25.5 11.4 25.5 25.5 0 14.1-11.5 25.5-25.5 25.5h-94c-14.1 0-25.5-11.4-25.5-25.5z"/><path className="d" d="m486.5 560.5q-7.6-4.6-15.4-8.9-1-0.6-1.9-1.1l3.4-1.5 9.3-4h0.1l0.1 0.3z"/><path className="c" d="m500.9 569.4q-2.5-1.5-5-3.1-4-2.5-8-4.9-0.7-0.4-1.4-0.9-7.6-4.6-15.4-8.9-1-0.6-1.9-1.1-3.8-2.1-7.7-4.1-3.8-2-7.7-3.9-3.9-1.9-7.8-3.7-4-1.8-7.9-3.5c-7-3-14.1-5.6-21.2-7.9l-5.7-9.4-25.2-42.3-5.6-9.2c0 0-18.9 5.6-45.7 10.9-9.7 2-20.5 3.9-31.8 5.5-12.1 1.7-24.8 3.1-37.4 3.8-6 0.3-12 0.5-17.9 0.4-15.2-0.1-29.9-1.5-42.7-4.9-4.3-4-17.2-9.5-26.4-14.5-3.9-2.1-7.1-4.1-8.8-5.9-9.8-10.3-1.5-18.4-10.1-29.6q-0.1-1.5 0-3.1 0-1.5 0.1-3.1 0-1.5 0.2-3.1 0.1-1.5 0.3-3 0.1-1.1 0.3-2.1l2.7-46.4 20.3-2.6 30.9-4.1 33.4-4.4 3.7 28.8c0 0 26-1.3 59-0.9 53 0.7 123.8 6 133.4 28.7q1.4 3.2 2.7 6.4 3.3 7.7 6.4 15.5c7.6 18.8 14.9 37.8 21.5 55.7 4.1 11.2 8 21.9 11.6 32 2.8 8.1 5.5 15.8 7.9 22.8 2.3 6.4 4.3 12.4 6.1 17.7q0.4 1.2 0.8 2.4z"/><path className="e" d="m314.3 288.5l-64-54.4 41.6-42.1 29.1 47.6 107.8 21.4c6.6-5 15.5-5.6 22.8-1.6 7.2 4.1 11.4 12 10.6 20.3-0.8 8.2-6.4 15.2-14.3 17.8-7.9 2.6-16.5 0.3-22.1-5.9z"/><path className="b" d="m219.5 134.8c4.5-0.4 9-0.2 13.4 0.6 4.4 0.7 8.7 2 12.8 3.8 4.1 1.9 8 4.2 11.5 7 3.5 2.8 6.7 6 9.4 9.6 19.7 25 34.6 44.8 34.6 44.8 0 0 29.3 32.2 24.2 34.5-8.9 4.1-17.4 35.8-25.2 48.6-2.7 4.5-42.7-45.3-43.4-39.5 0 0-70.5-57.5-63.1-81.6 7.4-24 21.3-27.4 25.8-27.8z"/><path className="e" d="m224.8 109.3c-23.9 0-43.3-19.3-43.3-43.3 0-23.9 19.4-43.3 43.3-43.3 24 0 43.3 19.4 43.3 43.3 0 24-19.3 43.3-43.3 43.3z"/><path className="b" d="m246.5 138c9.3 5.5 14.9 15.7 18.1 26.1q2.2 7.2 4 14.5 1.8 7.3 3.1 14.7 1.4 7.4 2.2 14.9 0.9 7.5 1.3 15l3.4 60.1 42 128c-36.4 30.7-173 6.9-173 6.9 0 0-4.2-1.4 0-5.5 4.2-4.2 8.3-0.5 4.1-4.7-4.2-4.2-1.3 0.5 0.1-3.7 1.4-4.2 0-1.4-1.4-2.8-1.4-1.4 10.8-14 10.8-14l-11.1-73.4-14-148.2c16.8-20.9 50.5-33.3 50.5-33.3l8.7-15.7 43.6 3.5z"/><path className="c" d="m258.7 41.9q-1-0.4-2-0.7-1.1-0.3-2.1-0.5-1.1-0.1-2.2-0.1-0.6 0-1.2 0-0.7 0.1-1.3 0.2-0.6 0-1.2 0.2-0.6 0.1-1.2 0.2-1.2 0.3-2.4 0.6-1.3 0.2-2.5 0.4-1.2 0.2-2.4 0.4-1.2 0.1-2.5 0.3c-4.9 0.4-9.8 1.7-14.4 3.8-4.5 2.1-8.7 4.9-12.3 8.3-3.7 3.5-6.7 7.5-9 11.9-2.3 4.4-3.9 9.2-4.6 14.2-2.5-2.2-8.3-6.2-12.9-2.5-0.1 0.1-0.2 0.1-0.3 0-3.1-1.5-8.7-19.7-8.8-35.7-0.1-8.5 1.2-19.4 8.1-22.8l0.3-0.2 0.1-0.4c0.5-1.9 5.6-5.2 14.6-7.7 16.2-4.6 39.9-5.3 53.5 7.9 1 4.5 4.9 5.7 8.3 6.8 3.7 1.2 7 2.3 7.5 6.9q0.1 2.4 0.2 4.9 0.1 2.4 0.1 4.9-0.1 2.4-0.1 4.9-0.1 2.5-0.3 4.9-0.5-1.5-1.2-2.9-0.7-1.4-1.6-2.7-0.9-1.2-2-2.4-1.1-1.1-2.4-2-0.9-0.6-1.8-1.1z"/><path className="f" d="m205.9 353.8l-13.2-6.8c-0.7-0.5-1.2-1.2-1.4-2.1-0.2-0.8-0.1-1.7 0.3-2.5 0.4-0.8 1-1.4 1.8-1.7 0.8-0.3 1.7-0.3 2.6-0.1l13.2 6.8c0.7 0.5 1.2 1.3 1.4 2.1 0.3 0.9 0.1 1.8-0.2 2.5-0.4 0.8-1.1 1.4-1.9 1.7-0.8 0.4-1.7 0.4-2.6 0.1z"/><path className="e" d="m161.3 335.6l-21.8-81.1 58.3-11.1-3.1 55.8 76.5 78.8c8.3-0.4 16 4.2 19.6 11.7 3.7 7.4 2.6 16.3-2.8 22.6-5.3 6.4-13.9 8.9-21.8 6.6-8-2.3-13.8-9.2-14.9-17.4z"/><path className="b" d="m170.6 155.2c3.9 2.3 7.5 5 10.8 8.1 3.2 3.1 6 6.7 8.3 10.5 2.4 3.8 4.2 7.9 5.5 12.2 1.3 4.3 2.1 8.8 2.3 13.2 2 31.9 3 56.6 3 56.6 0 0 5.8 43.1 0.3 42.2-9.6-1.8-34.7 19.5-48.3 25.7-4.8 2.1-9.4-61.6-13.3-57.3 0 0-25.4-87.3-5.6-102.9 19.8-15.6 33.2-10.5 37-8.3z"/><path className="b" d="m819 387l-791.4-0.9q-1.7-3.5-3.3-7.1-1.5-3.6-3-7.2-1.5-3.6-2.9-7.3-1.4-3.6-2.7-7.3l784.5 0.8q2.8 3.3 5.4 6.8 2.6 3.4 5 7.1 2.3 3.6 4.5 7.4 2.1 3.8 3.9 7.7z"/><path className="d" d="m566.9 596.8q-6.1 3-12.4 5.8c-6.9-4-13.7-8.1-20.5-12.3l25.2-11.1z"/><path className="c" d="m750.8 459q-6.1 8.3-12.7 16.2-6 7.3-12.4 14.3-2.6 2.9-5.3 5.8-5 5.4-10.2 10.5c-6.3 2-18.9 5.5-32.5 8.7-9.9 2.4-20.3 4.6-29 6q-1.9 0.4-3.7 0.6-1.9 0.3-3.7 0.5-1.9 0.2-3.7 0.3-1.9 0.1-3.7 0.2c-5.9 0.1-11.9-0.1-17.9-0.4-6.8-0.4-13.6-0.9-20.3-1.7-17.5-1.8-34.4-4.6-49-7.6-5.3-1-10.3-2.1-14.9-3.2-8.8-1.9-16.1-3.8-21.4-5.2-6-1.5-9.4-2.5-9.4-2.5l-14.9 25-7.8 13-5.7 9.5-1.5 2.6q-1-0.6-1.9-1.1-3.8-2.1-7.7-4.1-3.8-2-7.7-3.9-3.9-1.9-7.8-3.7-4-1.8-7.9-3.5c-7-3-14.1-5.6-21.2-7.9q-4.1-1.3-8.3-2.4 1.3-3.5 2.6-7 2.5-6.5 5.1-13.2c3.7-9.6 7.5-19.4 11.4-29.1 3.2-8 6.5-16 9.8-23.8 1.6-3.7 4.7-6.8 9-9.6q0.8-0.5 1.6-1 0.8-0.5 1.6-0.9 0.8-0.4 1.6-0.8 0.9-0.4 1.7-0.8c12.5-5.7 30.8-9.4 51-11.7q2.5-0.3 5-0.6c16.8-1.8 34.5-2.7 51.1-3.1 8.3-0.2 16.4-0.3 23.8-0.3q3.6 0 7 0h0.1c6.1 0.1 11.8 0.1 16.7 0.2q1.5 0.1 2.9 0.1 0.9 0 1.8 0.1c10.9 0.2 17.6 0.6 17.6 0.6l2.6-20.3 0.5-4.1 0.5-3.9v-0.1l0.1-0.4 0.4-0.1 7.2-0.1 60.5-1.2 33.1-0.6-5.3 22.4-8.6 37.1c0.8 5.9 30.1 1.3 29.8 6.2z"/><path className="c" d="m574.4 593.1q-3.7 1.9-7.5 3.7-6.1 3-12.4 5.8c-6.9-4-13.7-8.1-20.5-12.3-11.1-6.8-22.1-13.9-33.1-20.9q-2.5-1.5-5-3.1c-4.5-6.7-9.1-13.7-13.8-21q-0.1-0.1-0.2-0.3-1.8-2.7-3.6-5.5c-7.5-11.7-15-23.9-22.3-36.4l18.5-8.6 34.3-16 5.9-2.8 17.1 33.5 15.1 29.9 3.4 6.7z"/><path className="g" d="m568.6 445.1c-5.7 2.1-12 1.1-16.7-2.7-4.7-3.7-7.1-9.7-6.3-15.6 0.7-6 4.6-11.2 10.1-13.6q0.7-0.3 1.4-0.5l60.2-76.6c0 0 19.9-54.9 38.2-72.5l35.8 15.6-24.2 68.7-87.5 84.3c-1.2 6-5.3 10.9-11 12.9z"/><path className="f" d="m658.1 215.8l23.3-19c2.3-1.9 4.9-3.4 7.6-4.5 2.7-1.2 5.5-2 8.4-2.3 3-0.4 5.9-0.4 8.8 0.1 2.9 0.4 5.7 1.3 8.4 2.5 3.6 1.7 6.9 4 9.6 6.9 2.7 2.9 4.9 6.3 6.4 9.9 1.4 3.7 2.2 7.7 2.2 11.6 0.1 4-0.7 7.9-2.1 11.6-8.8 22.7-22.8 50.3-39.7 53.1h-0.2l-45.3-14.4z"/><path className="h" d="m750.2 460c-0.9-0.2-84.4-15-105.7-7.1-20.1 7.4-64.5-4.9-72.5-10.6-1-0.8-1.5-1.4-1.5-2 0.1-4.4 12.4-19.9 14.3-22.2l4.9-20.2 9.9-4-2.4-14.2 13.3-14.1 0.4-14.4 13.6-79.7-1.3-64.4c-0.2-6.4 0.8-12.7 2.9-18.8 2-6.1 5.1-11.7 9.1-16.7 4-5 8.9-9.3 14.3-12.6 5.5-3.4 11.5-5.7 17.8-7l13.6-24.2 37.8 1 22.5 35.3 18.9 18.7c4.6 4.6 8.5 9.7 11.8 15.3 3.2 5.6 5.7 11.6 7.3 17.9 1.7 6.2 2.5 12.7 2.5 19.2 0 6.4-0.9 12.9-2.7 19.1l-9.2 33.2-7 50.1v0.2l-10.3 9.7 1.1 11.2 2.3 25.1-13.1 3.9c2.9 6.7 22.2 53.2 8.1 72l-0.3 0.3z"/><path className="g" d="m696.5 117c-27.7 0-50.1-22.4-50.1-50.1 0-27.7 22.4-50.1 50.1-50.1 27.7 0 50.1 22.4 50.1 50.1 0 27.7-22.4 50.1-50.1 50.1z"/><path className="c" d="m689.3 117.7q-0.6 0-1.1-0.1-0.6-0.1-1.1-0.2-0.6-0.1-1.1-0.3l-0.3-0.4 0.2-0.4c0.2-0.4 0.5-0.6 3-0.9 3.3-0.3 6.8-7.1 8.6-16.6 1.8-9.8 1.5-21.6-3.7-24.2q-0.6-0.4-1.1-0.8-0.5-0.5-0.9-1-0.4-0.5-0.8-1-0.3-0.6-0.6-1.2-0.2-0.5-0.5-1-0.3-0.5-0.7-1-0.4-0.4-0.9-0.8-0.4-0.4-0.9-0.7-1.2-0.3-2.5-0.4-1.3-0.1-2.5 0.1-1.2 0.3-2.4 0.8-1.1 0.5-2.1 1.3c-0.8 0.5-1.7 0.9-2.7 1-0.9 0.2-1.9 0.1-2.8-0.2-0.9-0.3-1.8-0.8-2.4-1.5-0.7-0.7-1.3-1.5-1.6-2.4q-1-2.9-2.8-5.5-1.7-2.6-4.1-4.6-2.3-2.1-5.1-3.5-2.8-1.3-5.8-2c-1.3-0.2-2.6-0.3-3.9-0.4q-0.8-0.1-1.6-0.2-0.8 0-1.6-0.2-0.7-0.1-1.5-0.3-0.8-0.1-1.6-0.3c-2.5-0.8-4.9-2.2-6.8-4.1-1.8-2-3.2-4.3-3.9-6.9-0.7-2.6-0.8-5.3-0.2-8 0.7-2.6 1.9-5 3.7-7l1.2-1.2 0.1 1.1c0.5-0.6 1.1-1.6 1.7-2.4 2.6-3.7 4.7-6.5 6.8-6.6q1.2 0 2.4-0.2 1.2-0.3 2.4-0.7 1.1-0.5 2.1-1.1 1.1-0.7 2-1.5 0.1-0.2 0.3-0.4 0.2-0.1 0.5-0.2 0.2-0.1 0.5-0.1 0.2 0 0.4 0.1c5.7 1.2 13.1 2.2 19.9-0.6 13.4-5.8 23.9-7.7 31.2-5.8q1.6 0.4 3.3 1 1.6 0.6 3.1 1.4 1.6 0.7 3 1.7 1.5 0.9 2.8 2 0.2 0.3 0.5 0.5 0.2 0.3 0.5 0.5 0.2 0.3 0.5 0.5 0.2 0.3 0.4 0.6 1.2 1.3 2.5 2.4 1.4 1.2 2.9 2.1 1.5 0.9 3.1 1.6 1.6 0.7 3.3 1.2 0.5 0.1 0.9 0.3 1.2 0.5 2.3 1.2 1.1 0.7 2 1.6 1 0.8 1.9 1.8 0.8 0.9 1.6 2c2.5 3.4 4.7 7.1 6.4 11 1.8 3.8 3.1 7.9 4 12 1 4.2 1.4 8.4 1.5 12.7 0 4.2-0.4 8.5-1.3 12.7-1.2 6.3-3.5 15-7 20.5-4.8 7.5-21.8 20-29.4 21.5q-2.8 0.5-5.7 0.8-2.9 0.3-5.8 0.5-2.9 0.2-5.8 0.3-2.9 0.1-5.8 0.1-0.6 0-1.1 0z"/><path className="g" d="m588.7 297.2l-133.9 9.6c-5.3 4.3-12.5 5.5-18.8 3-6.4-2.4-10.9-8-12-14.7-1.1-6.8 1.5-13.5 6.8-17.8 5.3-4.3 12.5-5.4 18.8-3l105.3-22.3c0 0 55.7-32.4 83.7-34.4l19.3 38.6z"/><path className="h" d="m615.4 223l-0.1-0.2c-4.6-18.3 17-44.7 36-63.7 3.1-3.1 6.8-5.6 10.8-7.3 4-1.7 8.3-2.7 12.7-2.9 4.4-0.1 8.8 0.6 12.9 2.1 4.1 1.4 7.9 3.7 11.2 6.6 2.5 2.1 4.6 4.6 6.3 7.3 1.8 2.8 3.1 5.8 4.1 8.9 0.9 3.1 1.4 6.3 1.4 9.5 0 3.3-0.4 6.5-1.2 9.7l-8.9 32-50.5 37.5z"/><path className="i" d="m452.7 362.8h135v18h-135z"/><path className="i" d="m107.7 362.8h135v18h-135z"/><path className="b" d="m258.7 274.6q0.4-0.7 0.9-1.3 0.6-0.6 1.4-0.9 0.7-0.3 1.5-0.3h127.1q0.8 0 1.5 0.3 0.8 0.3 1.4 0.9 0.5 0.6 0.9 1.3 0.3 0.8 0.3 1.6v85.7q0 0.8-0.3 1.6-0.4 0.7-0.9 1.3-0.6 0.6-1.4 0.9-0.7 0.3-1.5 0.3h-127.1q-0.8 0-1.5-0.3-0.8-0.3-1.4-0.9-0.5-0.6-0.9-1.3-0.3-0.8-0.3-1.6v-85.7q0-0.8 0.3-1.6z"/><path className="h" d="m261.6 276.4q0.1-0.4 0.5-0.7 0.3-0.3 0.7-0.5 0.4-0.1 0.8-0.1h124.9q0.4 0 0.8 0.1 0.4 0.2 0.8 0.5 0.3 0.3 0.4 0.7 0.2 0.4 0.2 0.9v83.6q0 0.4-0.2 0.8-0.1 0.4-0.4 0.7-0.4 0.3-0.8 0.5-0.4 0.2-0.8 0.2h-124.9q-0.4 0-0.8-0.2-0.4-0.2-0.7-0.5-0.4-0.3-0.5-0.7-0.2-0.4-0.2-0.8v-83.6q0-0.5 0.2-0.9z"/><path className="c" d="m255.5 378.2q-0.2-0.3-0.2-0.6-0.1-0.2-0.1-0.5 0-0.3 0.1-0.6l2.1-10q0-0.3 0.2-0.6 0.1-0.3 0.3-0.5 0.2-0.2 0.5-0.4 0.2-0.2 0.5-0.3 0.1 0 0.2-0.1 0.2 0 0.3 0 0.1 0 0.2-0.1 0.1 0 0.2 0h131.8q0.1 0 0.2 0 0.1 0.1 0.2 0.1 0.2 0 0.3 0 0.1 0.1 0.2 0.1 0.3 0.1 0.5 0.3 0.3 0.2 0.5 0.4 0.2 0.2 0.3 0.5 0.2 0.3 0.2 0.6l2.2 10q0.1 0.6-0.1 1.1-0.1 0.6-0.5 1-0.3 0.5-0.8 0.7-0.5 0.3-1.1 0.3h-136q-0.3 0-0.5-0.1-0.3-0.1-0.6-0.2-0.2-0.1-0.4-0.3-0.3-0.2-0.4-0.4-0.2-0.2-0.3-0.4z"/><path className="b" d="m390.6 368.4c0 0.2-0.2 0.4-0.5 0.4h-3.2c-0.2 0-0.5-0.2-0.5-0.4v-1.6c0-0.2 0.3-0.5 0.5-0.5h3.2c0.3 0 0.5 0.3 0.5 0.5z"/><path className="b" d="m382.3 368.4c0 0.2-0.3 0.4-0.5 0.4h-3.2c-0.3 0-0.5-0.2-0.5-0.4v-1.6c0-0.2 0.2-0.5 0.5-0.5h3.2c0.2 0 0.5 0.3 0.5 0.5z"/><path className="b" d="m373.9 368.4c0 0.2-0.2 0.4-0.5 0.4h-3.2c-0.3 0-0.5-0.2-0.5-0.4v-1.6c0-0.2 0.2-0.5 0.5-0.5h3.2c0.3 0 0.5 0.3 0.5 0.5z"/><path className="b" d="m365.5 368.4c0 0.2-0.2 0.4-0.5 0.4h-3.2c-0.3 0-0.5-0.2-0.5-0.4v-1.6c0-0.2 0.2-0.5 0.5-0.5h3.2c0.3 0 0.5 0.3 0.5 0.5z"/><path className="b" d="m357.1 368.4c0 0.2-0.2 0.4-0.5 0.4h-3.2c-0.2 0-0.5-0.2-0.5-0.4v-1.6c0-0.2 0.3-0.5 0.5-0.5h3.2c0.3 0 0.5 0.3 0.5 0.5z"/><path className="b" d="m348.7 368.4c0 0.2-0.2 0.4-0.4 0.4h-3.3c-0.2 0-0.4-0.2-0.4-0.4v-1.6c0-0.2 0.2-0.5 0.4-0.5h3.3c0.2 0 0.4 0.3 0.4 0.5z"/><path className="b" d="m340.4 368.4c0 0.2-0.2 0.4-0.5 0.4h-3.2c-0.3 0-0.5-0.2-0.5-0.4v-1.6c0-0.2 0.2-0.5 0.5-0.5h3.2c0.3 0 0.5 0.3 0.5 0.5z"/><path className="b" d="m332 368.4c0 0.2-0.2 0.4-0.5 0.4h-3.2c-0.3 0-0.5-0.2-0.5-0.4v-1.6c0-0.2 0.2-0.5 0.5-0.5h3.2c0.3 0 0.5 0.3 0.5 0.5z"/><path className="b" d="m323.6 368.4c0 0.2-0.2 0.4-0.5 0.4h-3.2c-0.3 0-0.5-0.2-0.5-0.4v-1.6c0-0.2 0.2-0.5 0.5-0.5h3.2c0.3 0 0.5 0.3 0.5 0.5z"/><path className="b" d="m315.2 368.4c0 0.2-0.2 0.4-0.4 0.4h-3.3c-0.2 0-0.5-0.2-0.5-0.4v-1.6c0-0.2 0.3-0.5 0.5-0.5h3.3c0.2 0 0.4 0.3 0.4 0.5z"/><path className="b" d="m306.9 368.4c0 0.2-0.3 0.4-0.5 0.4h-3.2c-0.3 0-0.5-0.2-0.5-0.4v-1.6c0-0.2 0.2-0.5 0.5-0.5h3.2c0.2 0 0.5 0.3 0.5 0.5z"/><path className="b" d="m298.5 368.4c0 0.2-0.2 0.4-0.5 0.4h-3.2c-0.3 0-0.5-0.2-0.5-0.4v-1.6c0-0.2 0.2-0.5 0.5-0.5h3.2c0.3 0 0.5 0.3 0.5 0.5z"/><path className="b" d="m290.1 368.4c0 0.2-0.2 0.4-0.5 0.4h-3.2c-0.3 0-0.5-0.2-0.5-0.4v-1.6c0-0.2 0.2-0.5 0.5-0.5h3.2c0.3 0 0.5 0.3 0.5 0.5z"/><path className="b" d="m281.7 368.4c0 0.2-0.2 0.4-0.5 0.4h-3.2c-0.2 0-0.5-0.2-0.5-0.4v-1.6c0-0.2 0.3-0.5 0.5-0.5h3.2c0.3 0 0.5 0.3 0.5 0.5z"/><path className="b" d="m273.4 368.4c0 0.2-0.3 0.4-0.5 0.4h-3.2c-0.3 0-0.5-0.2-0.5-0.4v-1.6c0-0.2 0.2-0.5 0.5-0.5h3.2c0.2 0 0.5 0.3 0.5 0.5z"/><path className="b" d="m265 368.4c0 0.2-0.2 0.4-0.5 0.4h-3.2c-0.3 0-0.5-0.2-0.5-0.4v-1.6c0-0.2 0.2-0.5 0.5-0.5h3.2c0.3 0 0.5 0.3 0.5 0.5z"/><path className="b" d="m390.7 372.5c0 0.3-0.2 0.5-0.5 0.5h-3.2c-0.2 0-0.5-0.2-0.5-0.5v-1.5c0-0.3 0.3-0.5 0.5-0.5h3.2c0.3 0 0.5 0.2 0.5 0.5z"/><path className="b" d="m382.4 372.5c0 0.3-0.3 0.5-0.5 0.5h-3.2c-0.3 0-0.5-0.2-0.5-0.5v-1.5c0-0.3 0.2-0.5 0.5-0.5h3.2c0.2 0 0.5 0.2 0.5 0.5z"/><path className="b" d="m374 372.5c0 0.3-0.2 0.5-0.5 0.5h-3.2c-0.3 0-0.5-0.2-0.5-0.5v-1.5c0-0.3 0.2-0.5 0.5-0.5h3.2c0.3 0 0.5 0.2 0.5 0.5z"/><path className="b" d="m365.6 372.5c0 0.3-0.2 0.5-0.5 0.5h-3.2c-0.3 0-0.5-0.2-0.5-0.5v-1.5c0-0.3 0.2-0.5 0.5-0.5h3.2c0.3 0 0.5 0.2 0.5 0.5z"/><path className="b" d="m357.2 372.5c0 0.3-0.2 0.5-0.5 0.5h-3.2c-0.2 0-0.5-0.2-0.5-0.5v-1.5c0-0.3 0.3-0.5 0.5-0.5h3.2c0.3 0 0.5 0.2 0.5 0.5z"/><path className="b" d="m348.8 372.5c0 0.3-0.2 0.5-0.4 0.5h-3.3c-0.2 0-0.4-0.2-0.4-0.5v-1.5c0-0.3 0.2-0.5 0.4-0.5h3.3c0.2 0 0.4 0.2 0.4 0.5z"/><path className="b" d="m340.5 372.5c0 0.3-0.3 0.5-0.5 0.5h-3.2c-0.3 0-0.5-0.2-0.5-0.5v-1.5c0-0.3 0.2-0.5 0.5-0.5h3.2c0.2 0 0.5 0.2 0.5 0.5z"/><path className="b" d="m332.1 372.5c0 0.3-0.2 0.5-0.5 0.5h-3.2c-0.3 0-0.5-0.2-0.5-0.5v-1.5c0-0.3 0.2-0.5 0.5-0.5h3.2c0.3 0 0.5 0.2 0.5 0.5z"/><path className="b" d="m323.7 372.5c0 0.3-0.2 0.5-0.5 0.5h-3.2c-0.3 0-0.5-0.2-0.5-0.5v-1.5c0-0.3 0.2-0.5 0.5-0.5h3.2c0.3 0 0.5 0.2 0.5 0.5z"/><path className="b" d="m315.3 372.5c0 0.3-0.2 0.5-0.5 0.5h-3.2c-0.2 0-0.5-0.2-0.5-0.5v-1.5c0-0.3 0.3-0.5 0.5-0.5h3.2c0.3 0 0.5 0.2 0.5 0.5z"/><path className="b" d="m307 372.5c0 0.3-0.3 0.5-0.5 0.5h-3.2c-0.3 0-0.5-0.2-0.5-0.5v-1.5c0-0.3 0.2-0.5 0.5-0.5h3.2c0.2 0 0.5 0.2 0.5 0.5z"/><path className="b" d="m298.6 372.5c0 0.3-0.2 0.5-0.5 0.5h-3.2c-0.3 0-0.5-0.2-0.5-0.5v-1.5c0-0.3 0.2-0.5 0.5-0.5h3.2c0.3 0 0.5 0.2 0.5 0.5z"/><path className="b" d="m290.2 372.5c0 0.3-0.2 0.5-0.5 0.5h-3.2c-0.3 0-0.5-0.2-0.5-0.5v-1.5c0-0.3 0.2-0.5 0.5-0.5h3.2c0.3 0 0.5 0.2 0.5 0.5z"/><path className="b" d="m281.8 372.5c0 0.3-0.2 0.5-0.5 0.5h-3.2c-0.2 0-0.5-0.2-0.5-0.5v-1.5c0-0.3 0.3-0.5 0.5-0.5h3.2c0.3 0 0.5 0.2 0.5 0.5z"/><path className="b" d="m273.5 372.5c0 0.3-0.3 0.5-0.5 0.5h-3.2c-0.3 0-0.5-0.2-0.5-0.5v-1.5c0-0.3 0.2-0.5 0.5-0.5h3.2c0.2 0 0.5 0.2 0.5 0.5z"/><path className="b" d="m265.1 372.5c0 0.3-0.2 0.5-0.5 0.5h-3.2c-0.3 0-0.5-0.2-0.5-0.5v-1.5c0-0.3 0.2-0.5 0.5-0.5h3.2c0.3 0 0.5 0.2 0.5 0.5z"/><path className="b" d="m350.5 377.6c0 0.2-0.2 0.5-0.5 0.5h-32.5c-0.3 0-0.5-0.3-0.5-0.5v-1.6c0-0.2 0.2-0.4 0.5-0.4h32.5c0.3 0 0.5 0.2 0.5 0.4z"/></svg>